<svg width="256" height="256" viewBox="0 0 256 256" fill="none" xmlns="http://www.w3.org/2000/svg">
<path d="M255.5 128C255.5 198.416 198.416 255.5 128 255.5C57.5837 255.5 0.5 198.416 0.5 128C0.5 57.5837 57.5837 0.5 128 0.5C198.416 0.5 255.5 57.5837 255.5 128Z" fill="#5C451F" fill-opacity="0.2" stroke="#EAB254"/>
<mask id="mask0_338_3" style="mask-type:alpha" maskUnits="userSpaceOnUse" x="12" y="12" width="232" height="232">
<circle cx="128" cy="128" r="116" fill="#E0A100"/>
</mask>
<g mask="url(#mask0_338_3)">
<path d="M113.131 125.492L89.8966 174.585C88.6591 177.199 88.0173 180.056 88.0173 182.949C88.0173 193.747 96.7708 202.5 107.569 202.5H278.922C288.63 202.5 296.5 194.63 296.5 184.922C296.5 175.214 288.63 167.344 278.922 167.344H165.847C146.397 167.344 133.574 147.088 141.895 129.508L165.129 80.4152C166.366 77.8006 167.008 74.9441 167.008 72.0515C167.008 61.2535 158.254 52.5 147.456 52.5H-13.9219C-23.63 52.5 -31.5 60.37 -31.5 70.0781C-31.5 79.7863 -23.63 87.6563 -13.9219 87.6563H89.1777C108.628 87.6563 121.451 107.912 113.131 125.492Z" fill="black" stroke="#8F6826" stroke-width="3"/>
</g>
</svg>
