<svg width="509" height="185" viewBox="0 0 509 185" fill="none" xmlns="http://www.w3.org/2000/svg">
<mask id="mask0_341_24" style="mask-type:alpha" maskUnits="userSpaceOnUse" x="0" y="0" width="137" height="137">
<circle cx="68.5" cy="68.5" r="68.5" fill="#E0A100"/>
</mask>
<g mask="url(#mask0_341_24)">
<path d="M53.4665 114.576C47.5793 114.576 42.8068 109.804 42.8068 103.917V103.917C42.8068 102.34 43.1567 100.782 43.8314 99.3567L57.9126 69.6037C62.9363 58.989 55.194 46.7592 43.4505 46.7592H-18.2759C-23.5195 46.7592 -27.7703 42.5084 -27.7703 37.2648V37.2648C-27.7703 32.0212 -23.5195 27.7704 -18.2758 27.7704H77.0208C82.908 27.7704 87.6805 32.5429 87.6805 38.4301V38.4301C87.6805 40.0072 87.3305 41.5646 86.6559 42.9901L72.5746 72.7431C67.551 83.3578 75.2933 95.5876 87.0367 95.5876H154.653C159.897 95.5876 164.148 99.8384 164.148 105.082V105.082C164.148 110.326 159.897 114.576 154.653 114.576H53.4665Z" fill="#FFF1DA"/>
</g>
<path d="M137.119 32.44C137.119 30.4773 137.845 28.8133 139.295 27.448C140.831 26.0827 142.709 25.4 144.927 25.4H201.887C201.887 30.008 201.034 33.3787 199.327 35.512C197.706 37.6453 195.061 38.712 191.391 38.712H152.479V63.16H187.167C187.167 67.768 186.314 71.1387 184.607 73.272C182.986 75.4053 180.383 76.472 176.799 76.472H152.479V101.688H194.079C197.663 101.688 200.266 102.755 201.887 104.888C203.594 107.021 204.447 110.392 204.447 115H144.927C142.709 115 140.831 114.317 139.295 112.952C137.845 111.587 137.119 109.88 137.119 107.832V32.44ZM230.419 36.792C230.419 32.8667 231.657 29.7947 234.131 27.576C236.691 25.3573 240.19 24.248 244.627 24.248L289.939 94.52L291.091 93.496L286.355 85.688V24.248C291.39 24.248 295.187 25.2293 297.747 27.192C300.307 29.1547 301.587 32.0987 301.587 36.024V105.144C301.587 108.131 300.393 110.733 298.003 112.952C295.614 115.085 292.713 116.152 289.299 116.152L242.067 42.936L240.915 43.832L245.651 51.768V104.376C245.651 108.216 244.329 111.16 241.683 113.208C239.123 115.171 235.369 116.152 230.419 116.152V36.792ZM356.019 82.744L324.275 25.912C325.043 25.4853 326.195 25.1013 327.731 24.76C329.267 24.4187 330.675 24.248 331.955 24.248C334.771 24.248 337.118 24.8453 338.995 26.04C340.958 27.1493 342.622 28.9413 343.987 31.416L363.443 67.768L360.115 74.424L361.395 75.064L383.539 31.416C385.929 26.6373 389.939 24.248 395.571 24.248C396.851 24.248 398.259 24.4187 399.795 24.76C401.331 25.1013 402.483 25.4853 403.251 25.912L371.507 82.744V104.376C371.507 108.131 370.185 111.032 367.539 113.08C364.894 115.128 361.054 116.152 356.019 116.152V82.744ZM429.407 116.152C425.994 116.152 423.05 114.872 420.575 112.312L451.679 68.792L422.111 27.064C423.05 26.2107 424.245 25.528 425.695 25.016C427.146 24.504 428.682 24.248 430.303 24.248C432.522 24.248 434.57 24.632 436.447 25.4C438.41 26.168 439.818 27.192 440.671 28.472L459.359 56.248L456.031 60.856L457.183 61.624L479.711 28.472C480.65 27.192 482.058 26.168 483.935 25.4C485.813 24.632 487.903 24.248 490.207 24.248C491.743 24.248 493.237 24.504 494.687 25.016C496.138 25.528 497.333 26.2107 498.271 27.064L468.831 68.792L499.807 112.312C497.503 114.872 494.559 116.152 490.975 116.152C489.098 116.152 487.349 115.768 485.727 115C484.191 114.147 482.911 112.995 481.887 111.544L460.255 80.184L438.495 111.544C437.471 112.909 436.149 114.019 434.527 114.872C432.991 115.725 431.285 116.152 429.407 116.152Z" fill="#FFF1DA"/>
<path d="M132.575 127.65C132.575 126.456 133.023 125.453 133.919 124.642C134.858 123.789 135.989 123.362 137.311 123.362H165.919C165.919 126.178 165.45 128.226 164.511 129.506C163.573 130.786 162.058 131.426 159.967 131.426H141.983V141.538H158.751C158.751 144.354 158.282 146.402 157.343 147.682C156.405 148.962 154.89 149.602 152.799 149.602H141.983V160.098H161.311C163.359 160.098 164.853 160.738 165.791 162.018C166.73 163.298 167.199 165.346 167.199 168.162H137.311C135.989 168.162 134.858 167.757 133.919 166.946C133.023 166.136 132.575 165.112 132.575 163.874V127.65ZM179.35 130.146C179.35 127.885 180.118 126.093 181.654 124.77C183.19 123.448 185.26 122.786 187.862 122.786L208.406 155.298L209.11 154.722L206.23 149.922V122.786C209.26 122.786 211.564 123.362 213.142 124.514C214.721 125.666 215.51 127.352 215.51 129.57V162.53C215.51 163.597 215.169 164.621 214.486 165.602C213.846 166.541 212.972 167.309 211.862 167.906C210.753 168.461 209.58 168.738 208.342 168.738L186.454 134.114L185.75 134.69L188.63 139.49V161.954C188.63 164.173 187.841 165.858 186.262 167.01C184.684 168.162 182.38 168.738 179.35 168.738V130.146ZM247.249 168.738C243.409 168.738 239.975 167.992 236.945 166.498C233.916 165.005 231.548 162.936 229.841 160.29C228.177 157.602 227.345 154.552 227.345 151.138V140.258C227.345 136.845 228.156 133.816 229.777 131.17C231.441 128.525 233.745 126.477 236.689 125.026C239.676 123.533 243.068 122.786 246.865 122.786C250.663 122.786 254.055 123.362 257.041 124.514C260.028 125.624 262.332 127.181 263.953 129.186C265.617 131.192 266.449 133.496 266.449 136.098C266.449 137.762 265.895 139.085 264.785 140.066C263.676 141.005 262.161 141.474 260.241 141.474C259.132 141.474 258.044 141.325 256.977 141.026C257.105 140.13 257.169 139.064 257.169 137.826C257.169 135.778 256.209 134.114 254.289 132.834C252.369 131.512 249.895 130.85 246.865 130.85C243.879 130.85 241.447 131.725 239.569 133.474C237.692 135.224 236.753 137.485 236.753 140.258V151.138C236.753 153.954 237.713 156.258 239.633 158.05C241.596 159.8 244.135 160.674 247.249 160.674C250.236 160.674 252.668 159.992 254.545 158.626C256.423 157.261 257.361 155.512 257.361 153.378V151.906H252.689C250.94 151.906 249.511 151.224 248.401 149.858C247.335 148.493 246.801 146.722 246.801 144.546H262.353C263.633 144.546 264.679 144.952 265.489 145.762C266.3 146.53 266.705 147.554 266.705 148.834V153.57C266.705 156.514 265.873 159.138 264.209 161.442C262.588 163.746 260.305 165.538 257.361 166.818C254.417 168.098 251.047 168.738 247.249 168.738ZM280.118 129.634C280.118 127.501 280.929 125.837 282.55 124.642C284.214 123.405 286.539 122.786 289.526 122.786V161.89C289.526 164.066 288.694 165.752 287.03 166.946C285.409 168.141 283.105 168.738 280.118 168.738V129.634ZM304.238 130.146C304.238 127.885 305.006 126.093 306.542 124.77C308.078 123.448 310.147 122.786 312.75 122.786L333.294 155.298L333.998 154.722L331.118 149.922V122.786C334.147 122.786 336.451 123.362 338.03 124.514C339.609 125.666 340.398 127.352 340.398 129.57V162.53C340.398 163.597 340.057 164.621 339.374 165.602C338.734 166.541 337.859 167.309 336.75 167.906C335.641 168.461 334.467 168.738 333.23 168.738L311.342 134.114L310.638 134.69L313.518 139.49V161.954C313.518 164.173 312.729 165.858 311.15 167.01C309.571 168.162 307.267 168.738 304.238 168.738V130.146ZM353.825 127.65C353.825 126.456 354.273 125.453 355.169 124.642C356.108 123.789 357.239 123.362 358.561 123.362H387.169C387.169 126.178 386.7 128.226 385.761 129.506C384.823 130.786 383.308 131.426 381.217 131.426H363.233V141.538H380.001C380.001 144.354 379.532 146.402 378.593 147.682C377.655 148.962 376.14 149.602 374.049 149.602H363.233V160.098H382.561C384.609 160.098 386.103 160.738 387.041 162.018C387.98 163.298 388.449 165.346 388.449 168.162H358.561C357.239 168.162 356.108 167.757 355.169 166.946C354.273 166.136 353.825 165.112 353.825 163.874V127.65Z" fill="#FFF1DA"/>
</svg>
